<?xml version="1.0" standalone="yes"?>

<svg version="1.1" viewBox="0.0 0.0 305.24146981627297 187.20209973753282" fill="none" stroke="none" stroke-linecap="square" stroke-miterlimit="10" xmlns="http://www.w3.org/2000/svg" xmlns:xlink="http://www.w3.org/1999/xlink"><clipPath id="p.0"><path d="m0 0l305.24146 0l0 187.2021l-305.24146 0l0 -187.2021z" clip-rule="nonzero"></path></clipPath><g clip-path="url(#p.0)"><path fill="#000000" fill-opacity="0.0" d="m0 0l305.24146 0l0 187.2021l-305.24146 0z" fill-rule="evenodd"></path><path fill="#303030" d="m11.87664 16.616798l284.25195 0l0 38.80315l-284.25195 0z" fill-rule="evenodd"></path><path stroke="#303030" stroke-width="1.0" stroke-linejoin="round" stroke-linecap="butt" d="m11.87664 16.616798l284.25195 0l0 38.80315l-284.25195 0z" fill-rule="evenodd"></path><path fill="#303030" d="m11.87664 85.874016l284.25195 0l0 26.58268l-284.25195 0z" fill-rule="evenodd"></path><path stroke="#303030" stroke-width="1.0" stroke-linejoin="round" stroke-linecap="butt" d="m11.87664 85.874016l284.25195 0l0 26.58268l-284.25195 0z" fill-rule="evenodd"></path><path fill="#303030" d="m10.494751 142.91077l284.25195 0l0 33.039368l-284.25195 0z" fill-rule="evenodd"></path><path stroke="#303030" stroke-width="1.0" stroke-linejoin="round" stroke-linecap="butt" d="m10.494751 142.91077l284.25195 0l0 33.039368l-284.25195 0z" fill-rule="evenodd"></path></g></svg>

