<?xml version="1.0" encoding="UTF-8" standalone="no"?>
<svg
   xmlns:dc="http://purl.org/dc/elements/1.1/"
   xmlns:cc="http://creativecommons.org/ns#"
   xmlns:rdf="http://www.w3.org/1999/02/22-rdf-syntax-ns#"
   xmlns:svg="http://www.w3.org/2000/svg"
   xmlns="http://www.w3.org/2000/svg"
   xmlns:sodipodi="http://sodipodi.sourceforge.net/DTD/sodipodi-0.dtd"
   xmlns:inkscape="http://www.inkscape.org/namespaces/inkscape"
   version="1.1"
   viewBox="0.0 0.0 441.73228346456693 135.3254593175853"
   fill="none"
   stroke="none"
   stroke-linecap="square"
   stroke-miterlimit="10"
   id="svg33"
   sodipodi:docname="WikiAr_logo.svg"
   inkscape:version="0.92.1 unknown">
  <title
     id="title4516">WikiAr</title>
  <metadata
     id="metadata39">
    <rdf:RDF>
      <cc:Work
         rdf:about="">
        <dc:format>image/svg+xml</dc:format>
        <dc:type
           rdf:resource="http://purl.org/dc/dcmitype/StillImage" />
        <dc:title>WikiAr</dc:title>
        <dc:date></dc:date>
        <dc:creator>
          <cc:Agent>
            <dc:title>Gabriel Lasaro</dc:title>
          </cc:Agent>
        </dc:creator>
      </cc:Work>
    </rdf:RDF>
  </metadata>
  <defs
     id="defs37" />
  <sodipodi:namedview
     pagecolor="#ffffff"
     bordercolor="#666666"
     borderopacity="1"
     objecttolerance="10"
     gridtolerance="10"
     guidetolerance="10"
     inkscape:pageopacity="0"
     inkscape:pageshadow="2"
     inkscape:window-width="1366"
     inkscape:window-height="705"
     id="namedview35"
     showgrid="false"
     inkscape:zoom="0.90326206"
     inkscape:cx="220.86613"
     inkscape:cy="67.662727"
     inkscape:window-x="0"
     inkscape:window-y="30"
     inkscape:window-maximized="1"
     inkscape:current-layer="svg33" />
  <clipPath
     id="p.0">
    <path
       d="m0 0l441.73227 0l0 135.32545l-441.73227 0l0 -135.32545z"
       clip-rule="nonzero"
       id="path2" />
  </clipPath>
  <g
     clip-path="url(#p.0)"
     id="g31"
     transform="translate(1.1070984,-8.8567874)">
    <path
       d="M 0,0 H 441.73227 V 135.32545 H 0 Z"
       id="path5"
       inkscape:connector-curvature="0"
       style="fill:#000000;fill-opacity:0;fill-rule:evenodd" />
    <path
       d="m 2.4908137,-20.286089 438.3621963,0.09449 V 137.16274 L 2.4908137,137.06824 Z"
       id="path7"
       inkscape:connector-curvature="0"
       style="fill:#000000;fill-opacity:0;fill-rule:evenodd" />
    <path
       d="m 58.834564,22.960432 8.78125,0.0019 13.296875,33.518494 13.4375,-33.51273 8.906251,0.0019 -16.484376,40.29332 18.078126,42.707021 34.1875,-83.664502 10.10937,0.0022 -40.03125,94.428882 -8.25,-0.002 -19.812496,-46.691762 -19.953129,46.683192 -8.109371,-0.002 -39.90625,-94.446109 9.984374,0.0022 34.3125,83.679277 17.953125,-42.699258 -16.5,-40.30043 z M 160.92086,116.74806 V 47.451187 l 9.04688,0.0019 v 69.296874 l -9.04688,-0.002 z m 0,-83.796873 V 19.65431 l 9.04688,0.002 v 13.296875 z m 78.54993,83.813803 -25.53125,-35.521124 -14.90625,13.840538 v 21.671876 l -9.04687,-0.002 V 19.660576 l 9.04687,0.0019 v 65.96875 l 38.96875,-38.022854 10.25,0.0022 -28.32812,28.322021 29.39062,40.834459 -9.84375,-0.002 z m 21.17957,0.005 V 47.472687 l 9.04687,0.0019 v 69.296874 l -9.04687,-0.002 z m 0,-83.796873 V 19.675812 l 9.04687,0.0019 v 13.296875 z m 60.19055,-10.627651 7.84375,0.0017 39.23437,94.445954 -9.82812,-0.002 -12.25,-29.533894 -42.42188,-0.0091 -12.09375,29.528644 -9.98437,-0.002 39.5,-94.428982 z m 22.875,57.59868 -19.01563,-46.691597 -19.28125,46.683342 z m 70.72363,-24.453503 q -9.1875,0.263645 -15.96875,5.059059 -6.78125,4.779789 -9.57813,13.154186 v 43.093752 l -9.04687,-0.002 V 47.49838 l 8.51562,0.0018 v 16.625004 q 3.85938,-7.967922 10.375,-12.48214 6.51563,-4.529846 13.96875,-4.52824 1.0625,2.29e-4 1.73438,0.125374 z"
       id="path9"
       inkscape:connector-curvature="0"
       style="fill:#303030;fill-rule:nonzero" />
    <path
       d="M 2.1732283,128.42783 H 439.55906"
       id="path11"
       inkscape:connector-curvature="0"
       style="fill:#000000;fill-opacity:0;fill-rule:evenodd" />
    <path
       d="M 2.1732283,128.42783 H 439.55906"
       id="path13"
       inkscape:connector-curvature="0"
       style="fill-rule:evenodd;stroke:#303030;stroke-width:8;stroke-linecap:butt;stroke-linejoin:round" />
    <path
       d="m 283.44882,126.33596 8,-20.44095"
       id="path15"
       inkscape:connector-curvature="0"
       style="fill:#000000;fill-opacity:0;fill-rule:evenodd" />
    <path
       d="m 283.44882,126.33596 8,-20.44095"
       id="path17"
       inkscape:connector-curvature="0"
       style="fill-rule:evenodd;stroke:#303030;stroke-width:8;stroke-linecap:butt;stroke-linejoin:round" />
    <path
       d="m 278.91602,126.55905 9.35434,-20.66142"
       id="path19"
       inkscape:connector-curvature="0"
       style="fill:#000000;fill-opacity:0;fill-rule:evenodd" />
    <path
       d="m 278.91602,126.55905 9.35434,-20.66142"
       id="path21"
       inkscape:connector-curvature="0"
       style="fill-rule:evenodd;stroke:#303030;stroke-width:4;stroke-linecap:butt;stroke-linejoin:round" />
    <path
       d="m 366.7743,127.60368 -9.41733,-22.89764"
       id="path23"
       inkscape:connector-curvature="0"
       style="fill:#000000;fill-opacity:0;fill-rule:evenodd" />
    <path
       d="m 366.7743,127.60368 -9.41733,-22.89764"
       id="path25"
       inkscape:connector-curvature="0"
       style="fill-rule:evenodd;stroke:#303030;stroke-width:8;stroke-linecap:butt;stroke-linejoin:round" />
    <path
       d="M 370.95538,127.61417 359.71127,104.84252"
       id="path27"
       inkscape:connector-curvature="0"
       style="fill:#000000;fill-opacity:0;fill-rule:evenodd" />
    <path
       d="M 370.95538,127.61417 359.71127,104.84252"
       id="path29"
       inkscape:connector-curvature="0"
       style="fill-rule:evenodd;stroke:#303030;stroke-width:4;stroke-linecap:butt;stroke-linejoin:round" />
  </g>
</svg>
